<?xml version="1.0" standalone="no"?><!DOCTYPE svg PUBLIC "-//W3C//DTD SVG 1.1//EN" "http://www.w3.org/Graphics/SVG/1.1/DTD/svg11.dtd"><svg t="1527666327145" class="icon" style="" viewBox="0 0 1024 1024" version="1.1" xmlns="http://www.w3.org/2000/svg" p-id="7993" xmlns:xlink="http://www.w3.org/1999/xlink" width="200" height="200"><defs><style type="text/css"></style></defs><path d="M752.4 874.010h-481.168c-18.93 0-34.369 34.369-34.369 34.369v34.369h549.906v-34.369c0-18.929-15.44-34.369-34.37-34.369zM855.509 83.52h-687.383c-56.923 0-103.107 46.2-103.107 103.107v481.168c0 56.923 46.184 103.107 103.107 103.107h240.583v34.369c0 18.947 15.44 34.369 34.369 34.369h137.477c18.93 0 34.369-17.722 34.369-34.369v-34.369h240.583c56.923 0 103.107-46.184 103.107-103.107v-481.168c0.002-56.907-46.182-103.107-103.105-103.107zM168.125 633.427c-18.93 0-34.369-15.422-34.369-34.369v-412.43c0-18.93 15.44-34.369 34.369-34.369h687.383c18.93 0 34.369 15.44 34.369 34.369v412.429c0 18.947-15.44 34.369-34.369 34.369h-687.383zM855.475 737.809c-19.635 0-35.577-15.943-35.577-35.645 0-19.652 15.943-35.645 35.577-35.645 19.702 0 35.645 15.993 35.645 35.645-0.001 19.703-15.943 35.645-35.645 35.645zM762.47 239.171l-113.177 113.177-78.807-78.807c-7.552-7.586-18.225-11.143-28.865-9.767-10.606 1.426-19.97 7.72-25.274 17.017l-102.167 178.777-42.29-105.759c-4.296-10.723-13.694-18.577-25.006-20.894-11.512-2.333-23.058 1.191-31.214 9.364l-103.107 103.107c-13.426 13.426-13.426 35.175 0 48.6 13.426 13.426 35.175 13.426 48.6 0l66.255-66.255 49.372 123.464c4.901 12.234 16.379 20.608 29.536 21.514 0.805 0.050 1.611 0.084 2.383 0.084 12.284 0 23.696-6.561 29.839-17.318l115.157-201.516 71.289 71.289c13.426 13.426 35.175 13.426 48.601 0l137.476-137.477c13.426-13.426 13.426-35.175 0-48.6-13.426-13.425-35.175-13.425-48.601 0.001z" p-id="7994" fill="#ffffff"></path></svg>